<?xml version="1.0" encoding="UTF-8"?>
<svg version="1.1" xmlns="http://www.w3.org/2000/svg" width="1024" height="1024">
<path d="M0 0 C337.92 0 675.84 0 1024 0 C1024 337.92 1024 675.84 1024 1024 C686.08 1024 348.16 1024 0 1024 C0 686.08 0 348.16 0 0 Z " fill="#F6F5F5" transform="translate(0,0)"/>
<path d="M0 0 C1.77482679 -0.00542641 3.54964907 -0.01255197 5.32446289 -0.02124023 C10.12387977 -0.03941088 14.92295113 -0.03243306 19.72237372 -0.01972389 C24.75240975 -0.00956847 29.78241699 -0.01899618 34.81245422 -0.02526855 C43.25474337 -0.03253555 51.69689231 -0.02298004 60.13916016 -0.00390625 C69.89538208 0.01788181 79.65126986 0.01079326 89.40748376 -0.01121187 C97.79328128 -0.02936765 106.17897829 -0.03192395 114.56478912 -0.0214572 C119.56941412 -0.01522598 124.57388206 -0.01437689 129.57849693 -0.02760315 C134.28101877 -0.03916434 138.9831097 -0.03113103 143.68558502 -0.00802612 C145.41011401 -0.00274138 147.13467932 -0.00424881 148.8591938 -0.01307678 C151.21522627 -0.02402505 153.56988204 -0.01027923 155.92582703 0.00964355 C157.24336314 0.01115166 158.56089926 0.01265976 159.91836071 0.01421356 C164.05427571 0.60233136 166.22003758 1.92930261 169.45825195 4.51757812 C171.51740978 7.46348311 171.77961454 10.02391772 171.83325195 13.58007812 C171.86161133 14.43730469 171.8899707 15.29453125 171.91918945 16.17773438 C171.45825195 18.51757812 171.45825195 18.51757812 169.87110233 20.13973904 C166.59143259 22.01256846 164.16237945 21.89690159 160.39170837 21.90284729 C159.32394971 21.91070083 159.32394971 21.91070083 158.23462015 21.91871303 C155.84927487 21.93268256 153.46447002 21.92537133 151.07910156 21.91821289 C149.3691103 21.92395481 147.65912309 21.93103733 145.94914246 21.93936157 C142.26703575 21.95448073 138.58507408 21.96024844 134.90293694 21.95883369 C129.08385509 21.95680246 123.26496882 21.97634959 117.44593811 21.99900818 C106.14685706 22.04000331 94.84779134 22.05859583 83.54865265 22.07518005 C69.16225226 22.09752951 54.77589682 22.13099664 40.3895703 22.18237919 C34.60158714 22.20233674 28.81370619 22.21188318 23.02568996 22.21333134 C19.42985073 22.21607597 15.8340682 22.22689328 12.23825264 22.23984146 C10.56729277 22.24413167 8.89632007 22.24497409 7.22535706 22.24216652 C4.9493768 22.23878027 2.67375663 22.24751456 0.39781189 22.2592926 C-0.87736329 22.2609269 -2.15253847 22.26256121 -3.46635532 22.26424503 C-6.71272005 22.28162862 -6.71272005 22.28162862 -9.54174805 24.51757812 C-12.33788129 30.1098446 -12.08566289 36.41736398 -11.54174805 42.51757812 C-10.04202462 46.79178989 -8.44535831 49.19980953 -4.54174805 51.51757812 C-1.18581949 52.63622098 1.33971688 52.64790752 4.87736511 52.65560913 C5.53173579 52.65843041 6.18610647 52.66125169 6.86030656 52.66415846 C9.05727361 52.67250424 11.25419026 52.67384271 13.45117188 52.67529297 C15.02482241 52.67996131 16.59847159 52.6851049 18.17211914 52.69068909 C21.56389934 52.70197215 24.95567074 52.71040542 28.34746361 52.71680832 C33.71412299 52.72748909 39.08071933 52.74773508 44.44734192 52.76992798 C59.70916856 52.83184664 74.97099184 52.88583458 90.23291016 52.91894531 C98.65975074 52.93730765 107.08648605 52.96626512 115.51324922 53.00695002 C119.9713808 53.02799541 124.42937983 53.04347377 128.88756371 53.04575729 C133.08437518 53.04790941 137.28091084 53.06383607 141.47763824 53.09014702 C143.0142572 53.09732042 144.55090965 53.09945051 146.08754158 53.09604454 C163.40007811 53.06381315 163.40007811 53.06381315 170.39575195 59.01757812 C173.04059022 62.22344269 173.58027226 64.58944877 173.63525391 68.6184082 C173.65450676 69.85032646 173.65450676 69.85032646 173.67414856 71.10713196 C173.68153549 71.99152451 173.68892242 72.87591705 173.6965332 73.78710938 C173.70460495 74.70086838 173.7126767 75.61462738 173.72099304 76.55607605 C173.73482202 78.49024565 173.74554948 80.42443954 173.75341797 82.35864258 C173.77062653 85.30857856 173.81452247 88.25739234 173.85864258 91.20703125 C173.86877035 93.0878824 173.87728619 94.96874306 173.8840332 96.84960938 C173.90154129 97.72792923 173.91904938 98.60624908 173.93708801 99.51118469 C173.91787358 104.96725545 173.39655251 108.40865705 169.45825195 112.51757812 C161.85732458 117.64548021 153.24256761 117.07511837 144.46118164 117.01586914 C142.85221861 117.01969736 141.24325901 117.02532068 139.63430786 117.03259277 C136.18523085 117.04449766 132.73645851 117.0440899 129.2873764 117.03399849 C123.83277 117.01838385 118.37847418 117.03215137 112.92388916 117.05003357 C102.33581083 117.08078773 91.74782849 117.08235635 81.15971375 117.0803833 C67.6677887 117.07898826 54.17593684 117.08931682 40.68406606 117.12896103 C35.26202656 117.14389412 29.84026376 117.14362584 24.41822004 117.1314832 C21.04843444 117.12677527 17.67875501 117.13428675 14.30898666 117.14502716 C12.74689787 117.1474346 11.18479136 117.14469336 9.62272263 117.1364193 C7.48987994 117.12579715 5.35785305 117.13354913 3.22503662 117.14576721 C2.03194256 117.1451809 0.8388485 117.14459459 -0.39039993 117.14399052 C-3.89760644 117.55976461 -5.74889924 118.38557392 -8.54174805 120.51757812 C-12.04593885 126.55928641 -12.5244927 132.23227662 -10.9675293 139.02148438 C-9.50158074 144.10885932 -9.50158074 144.10885932 -5.54174805 147.51757812 C-2.37829064 147.82303162 -2.37829064 147.82303162 1.3084259 147.77586365 C2.00912679 147.77953935 2.70982767 147.78321506 3.43176192 147.78700215 C5.78547341 147.79700179 8.13894955 147.79282747 10.49267578 147.78881836 C12.17794547 147.79320434 13.863213 147.79850603 15.54847717 147.80465698 C19.1809147 147.816169 22.81329381 147.82161729 26.44574928 147.82253838 C32.18993578 147.82447672 37.93400125 147.84251742 43.67814636 147.86329651 C57.9482186 147.91252025 72.21832381 147.94336548 86.48846436 147.96459961 C97.57305502 147.98112028 108.6575423 148.00393374 119.7420637 148.04762036 C125.45146666 148.06940508 131.16067327 148.07745373 136.87011492 148.07522762 C140.42461386 148.07689495 143.97898478 148.09094743 147.53343773 148.1084404 C149.18055668 148.11403761 150.8277022 148.11452724 152.474823 148.10950279 C154.72588347 148.10335661 156.97613678 148.11560097 159.22712708 148.13230896 C160.48608701 148.13432029 161.74504694 148.13633162 163.04215717 148.13840389 C166.80880765 148.55648855 169.24052059 149.54430682 172.45825195 151.51757812 C174.427062 155.45519822 173.91659694 160.2252393 173.45825195 164.51757812 C171.36044256 168.13449087 170.4095097 169.20049221 166.45825195 170.51757812 C164.01824539 170.6213903 161.60632223 170.66974728 159.16596985 170.67147827 C158.41767747 170.67586053 157.66938508 170.68024278 156.89841717 170.68475783 C154.38361021 170.69814372 151.8688383 170.70432423 149.35400391 170.71044922 C147.5537551 170.71835038 145.75350788 170.72661934 143.95326233 170.73522949 C138.03436801 170.76144907 132.11546661 170.77675759 126.1965332 170.79101562 C124.1589018 170.79637543 122.12127045 170.80175294 120.08363914 170.80714798 C111.60726313 170.82877707 103.13088901 170.84751353 94.65449238 170.85877037 C82.50761042 170.87500782 70.36104843 170.90818042 58.2142871 170.96517122 C49.67319557 171.00387803 41.13218959 171.02340398 32.59101266 171.02869093 C27.49001183 171.03234351 22.38935228 171.04435487 17.28844643 171.07679367 C12.48750613 171.10688702 7.68711338 171.11318157 2.88609886 171.10140991 C1.12691074 171.10118928 -0.63230288 171.10948575 -2.3914032 171.12706375 C-19.56494966 171.28928949 -19.56494966 171.28928949 -25.54174805 165.51757812 C-31.35110579 159.55534254 -31.85671371 153.16646578 -31.87768555 145.24414062 C-31.88434235 144.36156586 -31.89099915 143.47899109 -31.89785767 142.56967163 C-31.90794875 140.70890374 -31.91267579 138.84809991 -31.91235352 136.98730469 C-31.91672385 134.15824051 -31.95307245 131.33074149 -31.9909668 128.50195312 C-31.99683649 126.68685425 -32.00080486 124.87174802 -32.00268555 123.05664062 C-32.0242421 121.80157211 -32.0242421 121.80157211 -32.04623413 120.52114868 C-31.99476138 113.82168829 -30.20563606 108.60458929 -25.7956543 103.49414062 C-24.9584082 102.82511719 -24.9584082 102.82511719 -24.10424805 102.14257812 C-23.27086914 101.45035156 -23.27086914 101.45035156 -22.4206543 100.74414062 C-17.89144934 97.7874455 -13.98869138 97.26440547 -8.62742615 97.24583435 C-7.94402304 97.24074751 -7.26061994 97.23566068 -6.55650765 97.2304197 C-4.27345391 97.21579165 -1.99061679 97.21522608 0.29248047 97.21459961 C1.93203143 97.20693616 3.57157847 97.19838935 5.21112061 97.18902588 C8.73820488 97.17076245 12.2652363 97.15871421 15.79236031 97.15148735 C21.3681374 97.13999672 26.94379744 97.114539 32.51951599 97.08717346 C41.3366826 97.04553736 50.15385484 97.01311582 58.97107309 96.98469931 C74.76634142 96.93371045 90.5615608 96.87157826 106.35674614 96.7993589 C111.90106204 96.77443273 117.44536252 96.75500294 122.98971379 96.73997676 C126.43590572 96.72977835 129.88207362 96.71563234 133.32824707 96.70050049 C134.9278348 96.69434111 136.52743011 96.68988396 138.12702751 96.68724251 C140.3083675 96.68343433 142.48960145 96.67362113 144.6709137 96.66233826 C145.89224786 96.65848334 147.11358202 96.65462843 148.37192631 96.6506567 C150.93209169 96.54026551 153.02683371 96.27510915 155.45825195 95.51757812 C157.63384239 89.12678121 158.50264324 83.09834825 156.58325195 76.51757812 C155.61761531 74.36379756 155.61761531 74.36379756 153.45825195 73.51757812 C151.31208991 73.4176385 149.16274983 73.38411126 147.01426697 73.37954712 C146.01054962 73.3753152 146.01054962 73.3753152 144.98655516 73.37099779 C142.73353821 73.362633 140.48057029 73.36131191 138.22753906 73.35986328 C136.61625021 73.35519625 135.00496268 73.35005287 133.39367676 73.34446716 C129.91730307 73.33317342 126.44093802 73.32474523 122.96455193 73.31834793 C117.46327897 73.30767548 111.96206769 73.28743086 106.46083069 73.26522827 C90.81489906 73.20328444 75.1689703 73.1493434 59.52294922 73.11621094 C50.88662191 73.09784193 42.2503972 73.06887394 33.61414534 73.02820623 C29.0447439 73.00716783 24.47547162 72.99168352 19.90601921 72.98939896 C15.60252018 72.987245 11.29928966 72.97129967 6.9958725 72.94500923 C5.42097265 72.93784213 3.84604017 72.93570264 2.2711277 72.93911171 C-8.4139709 72.9585366 -17.89935473 72.78496124 -26.10424805 65.13085938 C-30.12033833 60.6236711 -31.62546018 55.32886416 -31.73461914 49.42675781 C-31.75068207 48.63203064 -31.766745 47.83730347 -31.78329468 47.01849365 C-31.82814099 43.3917362 -31.86880744 39.765154 -31.8918457 36.13818359 C-31.90838622 34.23148375 -31.93565117 32.32484542 -31.97387695 30.41845703 C-32.02893987 27.65429875 -32.05056365 24.89158763 -32.06518555 22.12695312 C-32.08785492 21.28396667 -32.11052429 20.44098022 -32.13388062 19.57244873 C-32.11201531 13.37861843 -30.74890116 9.1317477 -26.54174805 4.51757812 C-18.89614395 -1.11106608 -9.00095094 -0.04625439 0 0 Z " fill="#010101" transform="translate(163.541748046875,412.482421875)"/>
<path d="M0 0 C5.00095501 3.20916899 8.89323781 7.92600219 11.19140625 13.40625 C11.19140625 14.39625 11.19140625 15.38625 11.19140625 16.40625 C6.015625 19.62890625 6.015625 19.62890625 4.19140625 20.40625 C0.37251463 19.13328613 -0.79086462 17.18889601 -3.2109375 14.09765625 C-5.81255576 11.34337579 -7.88408667 10.50416891 -11.6484375 10.10546875 C-13.18177734 10.09966797 -13.18177734 10.09966797 -14.74609375 10.09375 C-15.76574219 10.07699219 -16.78539062 10.06023437 -17.8359375 10.04296875 C-21.21306835 10.45567988 -23.07039986 11.42542889 -25.80859375 13.40625 C-28.12966366 16.61153701 -28.36265126 19.52784743 -27.80859375 23.40625 C-23.69547083 28.8904139 -18.84230357 29.89902322 -12.37109375 31.46875 C-2.83798968 33.83052526 3.25362921 36.32427569 9.19140625 44.40625 C12.3879515 50.19047475 11.65187785 56.28285299 10.12890625 62.46875 C8.02024786 68.79472517 4.61064792 72.53869013 -1.21875 75.72265625 C-9.57865747 79.25622539 -19.44021604 80.0921595 -28.18359375 77.34375 C-33.94780888 74.71576375 -38.50526397 70.45998178 -41.87109375 65.15625 C-42.80859375 62.40625 -42.80859375 62.40625 -41.80859375 59.40625 C-37.71501682 56.308408 -37.71501682 56.308408 -34.890625 56.61328125 C-32.31400165 57.59462185 -30.81408041 58.95968929 -28.80859375 60.84375 C-24.30772783 65.05452104 -21.24994581 66.82985808 -14.90234375 66.6640625 C-10.2068254 66.085883 -5.78108688 64.20443566 -2.80859375 60.40625 C-1.41865295 57.6263684 -1.62371171 55.4876174 -1.80859375 52.40625 C-2.69618858 50.06140994 -3.32063003 48.73830336 -5.41015625 47.31640625 C-9.79829456 45.47813209 -14.20090697 43.95769292 -18.7565918 42.59960938 C-34.70527953 37.84133561 -34.70527953 37.84133561 -38.48046875 31.67578125 C-40.98349086 25.51392976 -40.82182541 18.38907884 -39.1875 11.96484375 C-36.46517739 5.78214663 -31.18013969 0.7994508 -24.97265625 -1.765625 C-16.75521376 -3.91636303 -7.74938451 -3.5746749 0 0 Z " fill="#040404" transform="translate(679.80859375,470.59375)"/>
<path d="M0 0 C1.13840332 0.00628418 1.13840332 0.00628418 2.29980469 0.01269531 C10.0032474 0.1686892 16.03513828 1.66013828 21.6875 7.3125 C24.76123507 11.43062571 26.6875 14.06367282 26.6875 19.3125 C24.04174101 21.50470031 22.52372406 22.35232019 19.0625 22.1875 C16.53177024 21.25512588 15.31123296 20.44899073 13.6875 18.3125 C13.6875 17.6525 13.6875 16.9925 13.6875 16.3125 C12.36411368 15.62629969 11.02800052 14.96463539 9.6875 14.3125 C8.965625 13.94125 8.24375 13.57 7.5 13.1875 C2.21491376 11.54325095 -2.55947959 11.67503803 -7.75 13.5625 C-10.48645231 15.4312967 -11.43531882 16.15464774 -12.3125 19.3125 C-12.7133034 23.05333169 -12.92909425 25.34739595 -10.875 28.5625 C-6.31716821 31.67516561 -1.20533604 32.8344237 4.10546875 34.17578125 C12.95419793 36.48043419 20.32605164 38.80259225 25.1875 47 C27.69948239 52.91385989 27.79671151 58.98958551 25.76953125 65.0625 C22.60400529 71.94675063 18.90999156 76.18345407 11.8125 79.125 C3.27930857 81.64156832 -8.35784681 82.06990046 -16.34375 77.78515625 C-21.50006779 73.9281487 -25.73856663 69.60823348 -27.3125 63.3125 C-25.0025 61.6625 -22.6925 60.0125 -20.3125 58.3125 C-16.25864063 60.11723829 -13.44647514 62.77038476 -10.21484375 65.75390625 C-5.93370241 69.26145326 -0.5654316 68.77069964 4.6875 68.3125 C8.80355038 66.81575441 11.69546 65.29658001 13.6875 61.3125 C14.12836299 55.66759431 14.12836299 55.66759431 12.6875 50.3125 C7.22455808 47.691169 1.08485445 46.37367403 -4.74414062 44.78710938 C-11.75743545 42.7704563 -19.5193238 40.00634035 -23.3125 33.3125 C-25.48048741 26.80853778 -25.62031164 18.12963886 -22.75 11.8125 C-17.43187997 3.02440094 -9.99386538 -0.07428759 0 0 Z " fill="#030303" transform="translate(406.3125,467.6875)"/>
<path d="M0 0 C4.55554089 4.43565823 6.07871533 9.35599964 6.24291992 15.61254883 C6.24931388 17.39403633 6.24459014 19.17558824 6.23046875 20.95703125 C6.23001053 21.90059982 6.22955231 22.8441684 6.2290802 23.81632996 C6.22607017 25.80066188 6.21822146 27.78499171 6.20581055 29.76928711 C6.18745738 32.81958287 6.18530169 35.86957645 6.18554688 38.91992188 C6.18063492 40.84896098 6.17480801 42.77799802 6.16796875 44.70703125 C6.16685593 45.62362015 6.1657431 46.54020905 6.16459656 47.48457336 C6.11607689 53.88392311 6.11607689 53.88392311 5 55 C3.31391034 55.07205511 1.62499341 55.08386068 -0.0625 55.0625 C-0.98160156 55.05347656 -1.90070312 55.04445313 -2.84765625 55.03515625 C-3.55792969 55.02355469 -4.26820313 55.01195312 -5 55 C-5 53.35 -5 51.7 -5 50 C-6.010625 50.78375 -7.02125 51.5675 -8.0625 52.375 C-14.00544984 56.58757288 -19.86918847 57.56593742 -27 57 C-32.34740414 55.04614079 -35.45618143 52.08763713 -38 47 C-38.67622185 40.9568022 -39.226624 34.81311982 -35.75 29.5625 C-28.11957038 21.11197748 -16.73976171 18.81114325 -6 17 C-6.26656572 14.06556598 -6.26656572 14.06556598 -7 11 C-11.24840947 8.16772702 -15.00776195 8.33892738 -20 9 C-22.03911505 9.87983243 -22.03911505 9.87983243 -23.8125 11.0625 C-27 13 -27 13 -29.8125 12.875 C-32 12 -32 12 -34 10 C-33.90641508 6.53735795 -33.06599866 5.08152776 -30.875 2.375 C-22.08583847 -4.8856117 -10.02366277 -5.285204 0 0 Z " fill="#050505" transform="translate(773,492)"/>
<path d="M0 0 C5.59810304 4.15700721 7.83048774 10.03833823 9.97265625 16.46484375 C9.97265625 21.08484375 9.97265625 25.70484375 9.97265625 30.46484375 C-1.90734375 30.46484375 -13.78734375 30.46484375 -26.02734375 30.46484375 C-24.45013845 39.1871424 -24.45013845 39.1871424 -19.02734375 44.46484375 C-15.56078266 46.1981243 -11.81749027 45.94259331 -8.02734375 45.46484375 C-4.83763977 43.72500521 -2.58038882 42.01788882 -0.02734375 39.46484375 C2.75135553 39.67858985 4.52421236 40.16588115 6.84765625 41.71484375 C7.97265625 43.46484375 7.97265625 43.46484375 8.09765625 45.77734375 C6.113329 50.51768106 2.40441616 53.26020113 -2.140625 55.51171875 C-9.05544283 58.11552227 -16.38503223 58.94808903 -23.27734375 55.90234375 C-31.08074068 51.40947885 -34.01747264 44.97569382 -36.58203125 36.66796875 C-38.49678179 27.19499241 -37.65993913 16.98064407 -33.02734375 8.46484375 C-25.4173867 -2.85590918 -12.38280773 -6.31500721 0 0 Z " fill="#030303" transform="translate(527.02734375,491.53515625)"/>
<path d="M0 0 C1.64574566 -0.02688151 3.29161413 -0.04634123 4.9375 -0.0625 C5.85402344 -0.07410156 6.77054688 -0.08570313 7.71484375 -0.09765625 C10 0 10 0 11 1 C11.1225355 2.53382679 11.17777938 4.07310519 11.20532227 5.61157227 C11.22526749 6.59251358 11.24521271 7.5734549 11.26576233 8.5841217 C11.28247482 9.6507756 11.29918732 10.7174295 11.31640625 11.81640625 C11.33718735 12.9025975 11.35796844 13.98878876 11.37937927 15.1078949 C11.44499442 18.59269627 11.50381511 22.07757568 11.5625 25.5625 C11.60567385 27.91862801 11.64928776 30.27474799 11.69335938 32.63085938 C11.80068792 38.42048937 11.90243165 44.21019775 12 50 C14.09381378 47.4511513 16.18212993 44.89785184 18.26953125 42.34375 C19.15324402 41.26818848 19.15324402 41.26818848 20.05480957 40.17089844 C23.13913627 36.39143607 26.04032334 32.60578164 28.6875 28.5 C30.64680308 25.89254363 31.41038834 25.1194923 34.640625 24.46484375 C37.16712098 24.44014337 39.50926928 24.59406602 42 25 C41.11490439 29.48765418 38.57664166 32.39889499 35.75 35.875 C35.27175781 36.47441406 34.79351563 37.07382812 34.30078125 37.69140625 C33.82511719 38.28566406 33.34945312 38.87992187 32.859375 39.4921875 C32.38822266 40.0809668 31.91707031 40.66974609 31.43164062 41.27636719 C30.48534499 42.41566581 29.50450837 43.52722104 28.49023438 44.60644531 C25.70369862 47.58726356 25.70369862 47.58726356 24.90625 51.46484375 C26.3549958 54.82282954 28.32150371 57.65189275 30.5 60.5625 C30.9419873 61.16803711 31.38397461 61.77357422 31.83935547 62.39746094 C34.08277835 65.45950555 36.36675029 68.48997489 38.6640625 71.51171875 C39.07849609 72.05820068 39.49292969 72.60468262 39.91992188 73.16772461 C41.06737836 74.67434241 42.22484109 76.17332377 43.3828125 77.671875 C45 80 45 80 45 82 C43.10617836 82.13592021 41.20950296 82.2324094 39.3125 82.3125 C38.25675781 82.37050781 37.20101562 82.42851563 36.11328125 82.48828125 C29.4334044 81.44062177 25.23909277 73.74182811 21.1875 68.6875 C20.59001953 67.94693359 19.99253906 67.20636719 19.37695312 66.44335938 C17.9153582 64.63098166 16.45645973 62.816505 15 61 C12.13145734 63.44237549 12.01303089 63.88364451 11.55859375 67.94140625 C11.50421195 69.48133968 11.46434967 71.02184058 11.4375 72.5625 C11.25506757 80.74493243 11.25506757 80.74493243 9 83 C6.28545044 83.32752234 3.74769241 83.1308425 1 83 C-0.74292177 81.25707823 -0.11980303 78.99376505 -0.12442017 76.67175293 C-0.12082489 75.90858765 -0.11722961 75.14542236 -0.11352539 74.35913086 C-0.11367142 73.55919205 -0.11381744 72.75925323 -0.1139679 71.93507385 C-0.11326855 69.27830335 -0.10547518 66.62160207 -0.09765625 63.96484375 C-0.09579215 62.12781309 -0.09436821 60.29078194 -0.09336853 58.45375061 C-0.08954275 53.60890338 -0.07971196 48.76408592 -0.06866455 43.91925049 C-0.05845172 38.97937422 -0.05387119 34.03949315 -0.04882812 29.09960938 C-0.03808974 19.39972647 -0.0210126 9.69986571 0 0 Z " fill="#070707" transform="translate(841,465)"/>
<path d="M0 0 C5.3006252 3.00035389 8.55843079 6.96369871 10.3125 12.875 C10.58139341 16.32101033 10.54501641 19.75242151 10.5078125 23.20703125 C10.5049826 24.19877853 10.50215271 25.19052582 10.49923706 26.21232605 C10.48806804 29.37084159 10.46296927 32.52907057 10.4375 35.6875 C10.42746597 37.83267819 10.41834086 39.97786083 10.41015625 42.12304688 C10.38813945 47.37379521 10.35469443 52.62437713 10.3125 57.875 C8.83343108 57.90189216 7.35422517 57.92134621 5.875 57.9375 C5.05128906 57.94910156 4.22757813 57.96070313 3.37890625 57.97265625 C1.3125 57.875 1.3125 57.875 0.3125 56.875 C0.1893045 54.30410434 0.1263667 51.7559603 0.1015625 49.18359375 C0.07346545 47.58267257 0.04480084 45.98176126 0.015625 44.38085938 C-0.02543552 41.85539323 -0.06231491 39.33010588 -0.08886719 36.80444336 C-0.11671024 34.3679359 -0.1626104 31.9322701 -0.2109375 29.49609375 C-0.21419037 28.75306503 -0.21744324 28.01003632 -0.22079468 27.24449158 C-0.34481432 21.87753232 -1.42648908 17.76630919 -3.6875 12.875 C-7.38656065 10.40895957 -10.39655732 10.08008056 -14.6875 10.875 C-17.8922191 12.5720285 -20.11617769 14.79522408 -21.82788086 18.03027344 C-22.95349545 21.75525532 -23.0236211 25.34616318 -23.06640625 29.203125 C-23.08340073 29.99273621 -23.1003952 30.78234741 -23.11790466 31.59588623 C-23.17082891 34.1055107 -23.21126431 36.61511959 -23.25 39.125 C-23.29390752 41.64908265 -23.34052632 44.17303699 -23.39280701 46.69696045 C-23.42480918 48.26493649 -23.45168522 49.83302686 -23.47303772 51.40118408 C-23.57570543 56.76320543 -23.57570543 56.76320543 -24.6875 57.875 C-26.18488124 57.9729057 -27.68692892 58.00474864 -29.1875 58 C-30.0021875 58.00257813 -30.816875 58.00515625 -31.65625 58.0078125 C-33.6875 57.875 -33.6875 57.875 -34.6875 56.875 C-34.78631593 55.16181054 -34.81548969 53.44455197 -34.81689453 51.72851562 C-34.82162277 50.08175842 -34.82162277 50.08175842 -34.82644653 48.4017334 C-34.8244223 47.20697388 -34.82239807 46.01221436 -34.8203125 44.78125 C-34.82126923 43.56425415 -34.82222595 42.3472583 -34.82321167 41.09338379 C-34.82389372 38.51424101 -34.82203772 35.93509653 -34.81787109 33.35595703 C-34.81252322 29.39221364 -34.81781529 25.42858358 -34.82421875 21.46484375 C-34.82355797 18.96614558 -34.82227682 16.46744748 -34.8203125 13.96875 C-34.82233673 12.77399048 -34.82436096 11.57923096 -34.82644653 10.3482666 C-34.82329437 9.25042847 -34.82014221 8.15259033 -34.81689453 7.02148438 C-34.81609894 6.0496521 -34.81530334 5.07781982 -34.81448364 4.07653809 C-34.6875 1.875 -34.6875 1.875 -33.6875 0.875 C-32.19011876 0.7770943 -30.68807108 0.74525136 -29.1875 0.75 C-28.3728125 0.74742187 -27.558125 0.74484375 -26.71875 0.7421875 C-24.6875 0.875 -24.6875 0.875 -23.6875 1.875 C-23.64669217 3.87458364 -23.64495644 5.87545254 -23.6875 7.875 C-23.0275 7.875 -22.3675 7.875 -21.6875 7.875 C-21.460625 7.2975 -21.23375 6.72 -21 6.125 C-16.35823962 -1.83230351 -8.06041332 -2.45910915 0 0 Z " fill="#050505" transform="translate(581.6875,490.125)"/>
<path d="M0 0 C3.72813965 2.16372197 6.04367195 4.91161144 8.5625 8.375 C7.19266497 11.53615776 6.5734362 12.3677092 3.5625 14.375 C0.18704399 14.058551 -1.16067597 12.75081638 -3.4375 10.375 C-7.14492392 9.13919203 -10.58397224 8.81786346 -14.4375 9.375 C-17.1090404 10.87779176 -17.1090404 10.87779176 -18.4375 13.375 C-18.68151278 15.98891389 -18.68151278 15.98891389 -17.4375 18.375 C-13.96662069 20.80399902 -10.61428744 22.03510851 -6.5625 23.1875 C-0.46756682 25.14658567 4.30016341 27.70346385 7.72265625 33.2578125 C9.70620551 38.2582018 9.1240399 43.7790445 7.375 48.75 C4.26165591 53.2589811 0.72201818 55.67941786 -4.4375 57.375 C-7.77734375 57.67578125 -7.77734375 57.67578125 -11.375 57.6875 C-12.55964844 57.70425781 -13.74429688 57.72101562 -14.96484375 57.73828125 C-20.18396263 57.19229919 -24.11241269 55.12779872 -27.8125 51.4375 C-28.31523438 50.95410156 -28.81796875 50.47070312 -29.3359375 49.97265625 C-30.4375 48.375 -30.4375 48.375 -30.4375 44.375 C-26.5815144 40.41190369 -26.5815144 40.41190369 -23.5 40.3125 C-21.4375 41.375 -21.4375 41.375 -18.75 43.9375 C-15.46525995 46.8451653 -12.75031365 46.8398241 -8.48828125 46.6484375 C-6.2422036 46.41438579 -6.2422036 46.41438579 -3.4375 45.375 C-3.1075 43.065 -2.7775 40.755 -2.4375 38.375 C-6.68264155 35.30115513 -10.3665663 33.59156444 -15.4375 32.0625 C-21.41032848 30.02530507 -25.32265163 27.96847239 -28.4375 22.375 C-30.08230616 17.44058151 -30.0277043 13.11089501 -28.375 8.25 C-21.88398157 -1.3818338 -10.94253426 -5.03273045 0 0 Z " fill="#040304" transform="translate(922.4375,490.625)"/>
<path d="M0 0 C4.5460167 2.74655175 8.1538622 6.3185982 11 10.8125 C11 11.8025 11 12.7925 11 13.8125 C7.7309841 16.9907099 6.67834007 17.8125 2 17.8125 C0.65668346 15.81919158 -0.67594012 13.81865134 -2 11.8125 C-5.64218651 9.70386571 -8.83808672 9.30287797 -13 9.8125 C-17.12728966 11.75475396 -18.71261656 13.2760509 -20.875 17.3125 C-23.20818189 24.69860835 -23.04734448 33.70202955 -20 40.8125 C-16.71271882 44.59287336 -14.7730376 46.64201562 -9.75 47.125 C-3.63663761 46.61555313 -0.05522223 43.1796624 4 38.8125 C7.7952131 40.30347658 9.61042731 42.56950849 12 45.8125 C7.55963613 51.77193572 3.19572712 55.58478174 -4 57.8125 C-9.72889993 58.58814678 -15.65627034 58.93735138 -20.9375 56.25 C-28.10190418 50.54771912 -32.16749993 44.60405449 -33.30126953 35.35473633 C-33.43580704 32.83352326 -33.45886115 30.33699979 -33.4375 27.8125 C-33.45748047 26.97460938 -33.47746094 26.13671875 -33.49804688 25.2734375 C-33.4913518 16.6233987 -30.46910443 9.56048521 -24.54296875 3.25390625 C-18.23794097 -2.63610704 -7.93492002 -3.05189232 0 0 Z " fill="#040404" transform="translate(822,490.1875)"/>
<path d="M0 0 C0 4.95 0 9.9 0 15 C2.6915625 14.9690625 2.6915625 14.9690625 5.4375 14.9375 C7.29166122 14.9161878 9.14712498 14.92773498 11 15 C12 16 12 16 12.09765625 18.06640625 C12.06510417 20.37760417 12.03255208 22.68880208 12 25 C8.04 25 4.08 25 0 25 C0.06906922 29.32388583 0.15712654 33.64685148 0.26245117 37.9699707 C0.29561259 39.43926422 0.32367178 40.90868244 0.34643555 42.37817383 C0.38014519 44.49614368 0.43246433 46.61297995 0.48828125 48.73046875 C0.51446533 50.00301514 0.54064941 51.27556152 0.56762695 52.58666992 C1.0264535 56.2088348 1.70252285 58.17645412 4 61 C5.155 61.144375 6.31 61.28875 7.5 61.4375 C9.2325 61.7159375 9.2325 61.7159375 11 62 C13.05898632 64.89544951 14.06847559 66.73320157 13.875 70.3125 C13 72 13 72 10 73 C3.95947238 73.8339979 -0.32925383 73.01247196 -5.33984375 69.49609375 C-9.69771973 65.56887846 -10.86527547 60.22543778 -11.20532227 54.60839844 C-11.24683707 53.27552282 -11.28360893 51.94249361 -11.31640625 50.609375 C-11.33718735 49.90476135 -11.35796844 49.20014771 -11.37937927 48.47418213 C-11.44453837 46.23288319 -11.50360248 43.99147136 -11.5625 41.75 C-11.60571726 40.22655103 -11.64933257 38.70311329 -11.69335938 37.1796875 C-11.80018491 33.45324409 -11.90154639 29.72667506 -12 26 C-14.31 25.67 -16.62 25.34 -19 25 C-19 21.7 -19 18.4 -19 15 C-16.36 15 -13.72 15 -11 15 C-11 10.71 -11 6.42 -11 2 C-7 0 -7 0 0 0 Z " fill="#040405" transform="translate(715,476)"/>
<path d="M0 0 C0.495 6.93 0.495 6.93 1 14 C3.57161458 14.22786458 6.14322917 14.45572917 8.71484375 14.68359375 C11 15 11 15 12 16 C12.14193337 19.00331018 12.04236378 21.99217134 12 25 C8.37 25.33 4.74 25.66 1 26 C0.92570975 30.34159838 0.87133259 34.6828577 0.83520508 39.02490234 C0.82014077 40.50120491 0.79968518 41.97746288 0.77368164 43.45361328 C0.73719261 45.57856258 0.72025067 47.70291901 0.70703125 49.828125 C0.6913208 51.1059082 0.67561035 52.38369141 0.65942383 53.70019531 C1.0215599 57.20889148 1.44153689 58.61117689 4 61 C7.60465748 61.81314911 7.60465748 61.81314911 11 62 C11.02688151 63.64574566 11.04634123 65.29161413 11.0625 66.9375 C11.07410156 67.85402344 11.08570313 68.77054688 11.09765625 69.71484375 C11 72 11 72 10 73 C4.33191981 73.62050562 -0.16923983 73.25795453 -5 70 C-9.77279198 64.84022489 -10.16942524 60.62127856 -10.31640625 53.83203125 C-10.33718735 53.03721848 -10.35796844 52.2424057 -10.37937927 51.42350769 C-10.44472087 48.88659237 -10.50368808 46.34957427 -10.5625 43.8125 C-10.60569986 42.09178628 -10.64931463 40.37108292 -10.69335938 38.65039062 C-10.80038648 34.43369887 -10.90169724 30.2169038 -11 26 C-13.64 25.67 -16.28 25.34 -19 25 C-19.02689216 23.52093108 -19.04634621 22.04172517 -19.0625 20.5625 C-19.07410156 19.73878906 -19.08570313 18.91507812 -19.09765625 18.06640625 C-19 16 -19 16 -18 15 C-15.67182036 14.63239269 -13.3381615 14.29758419 -11 14 C-10.96261719 13.15695312 -10.92523437 12.31390625 -10.88671875 11.4453125 C-10.82097656 10.34960938 -10.75523437 9.25390625 -10.6875 8.125 C-10.62949219 7.03445313 -10.57148437 5.94390625 -10.51171875 4.8203125 C-10.34285156 3.88960938 -10.17398438 2.95890625 -10 2 C-7 0 -7 0 0 0 Z " fill="#010101" transform="translate(619,476)"/>
<path d="M0 0 C0.721875 0.00257813 1.44375 0.00515625 2.1875 0.0078125 C2.909375 0.00523437 3.63125 0.00265625 4.375 0 C6.1875 0.1328125 6.1875 0.1328125 7.1875 1.1328125 C7.28785816 3.65283701 7.32367712 6.1454745 7.31689453 8.66601562 C7.31864685 9.45459457 7.32039917 10.24317352 7.32220459 11.0556488 C7.32662358 13.6751421 7.32368496 16.29456846 7.3203125 18.9140625 C7.32098553 20.7262778 7.32195554 22.53849302 7.32321167 24.35070801 C7.32468871 28.15389869 7.3225339 31.95706594 7.31787109 35.76025391 C7.3121738 40.64659745 7.31545278 45.53288607 7.32144356 50.4192276 C7.32504901 54.16286639 7.32391066 57.90649205 7.32131577 61.65013123 C7.32064645 63.45234687 7.32147507 65.25456368 7.32379532 67.05677795 C7.32632159 69.57108741 7.32248162 72.08530667 7.31689453 74.59960938 C7.31891876 75.35185287 7.32094299 76.10409637 7.32302856 76.87913513 C7.3017626 82.0185499 7.3017626 82.0185499 6.1875 83.1328125 C4.375 83.265625 4.375 83.265625 2.1875 83.2578125 C1.465625 83.26039063 0.74375 83.26296875 0 83.265625 C-1.8125 83.1328125 -1.8125 83.1328125 -2.8125 82.1328125 C-2.91285816 79.61278799 -2.94867712 77.1201505 -2.94189453 74.59960938 C-2.94364685 73.81103043 -2.94539917 73.02245148 -2.94720459 72.2099762 C-2.95162358 69.5904829 -2.94868496 66.97105654 -2.9453125 64.3515625 C-2.94598553 62.5393472 -2.94695554 60.72713198 -2.94821167 58.91491699 C-2.94968871 55.11172631 -2.9475339 51.30855906 -2.94287109 47.50537109 C-2.9371738 42.61902755 -2.94045278 37.73273893 -2.94644356 32.8463974 C-2.95004901 29.10275861 -2.94891066 25.35913295 -2.94631577 21.61549377 C-2.94564645 19.81327813 -2.94647507 18.01106132 -2.94879532 16.20884705 C-2.95132159 13.69453759 -2.94748162 11.18031833 -2.94189453 8.66601562 C-2.94391876 7.91377213 -2.94594299 7.16152863 -2.94802856 6.38648987 C-2.92248853 0.21414787 -2.92248853 0.21414787 0 0 Z " fill="#000000" transform="translate(470.8125,464.8671875)"/>
<path d="M0 0 C1.23556641 0.01740234 1.23556641 0.01740234 2.49609375 0.03515625 C3.32238281 0.04417969 4.14867187 0.05320312 5 0.0625 C5.63808594 0.07410156 6.27617187 0.08570313 6.93359375 0.09765625 C6.95672226 7.64263858 6.97451144 15.18761726 6.98540592 22.73262691 C6.99063364 26.2357451 6.99772925 29.7388391 7.0090332 33.24194336 C7.02193581 37.26546466 7.02682287 41.28896039 7.03125 45.3125 C7.03641129 46.57601791 7.04157257 47.83953583 7.04689026 49.14134216 C7.04696579 50.30247025 7.04704132 51.46359833 7.04711914 52.65991211 C7.04933975 53.68805527 7.05156036 54.71619843 7.05384827 55.77549744 C6.93359375 58.09765625 6.93359375 58.09765625 5.93359375 59.09765625 C4.12109375 59.23046875 4.12109375 59.23046875 1.93359375 59.22265625 C1.21171875 59.22523438 0.48984375 59.2278125 -0.25390625 59.23046875 C-2.06640625 59.09765625 -2.06640625 59.09765625 -3.06640625 58.09765625 C-3.16534403 56.32319616 -3.19439717 54.54479374 -3.19580078 52.76757812 C-3.19895294 51.62969849 -3.2021051 50.49181885 -3.20535278 49.31945801 C-3.20332855 48.08095093 -3.20130432 46.84244385 -3.19921875 45.56640625 C-3.20017548 44.30501831 -3.2011322 43.04363037 -3.20211792 41.74401855 C-3.2028 39.07068487 -3.20144154 36.39744188 -3.19677734 33.72412109 C-3.19108006 30.29058934 -3.19435926 26.85713575 -3.20034981 23.42360687 C-3.20482387 20.15870382 -3.20169508 16.89381032 -3.19921875 13.62890625 C-3.20124298 12.39039917 -3.20326721 11.15189209 -3.20535278 9.87585449 C-3.20220062 8.73797485 -3.19904846 7.60009521 -3.19580078 6.42773438 C-3.19500519 5.42037231 -3.19420959 4.41301025 -3.19338989 3.37512207 C-3.02973078 0.43987757 -2.93552165 0.13872976 0 0 Z " fill="#010101" transform="translate(447.06640625,488.90234375)"/>
<path d="M0 0 C0.34033413 5.67223552 0.53266894 10.25297611 -3 15 C-7.74091636 18.42755439 -12.12408743 19.67798991 -18 19 C-20.76142665 17.98263229 -21.68085371 17.63829259 -23 15 C-23.51400471 11.14496467 -23.40186352 9.54446025 -21.0625 6.375 C-14.27478826 1.11106029 -8.53183152 -0.54170359 0 0 Z " fill="#F3F3F3" transform="translate(768,520)"/>
<path d="M0 0 C4.1657644 1.7588783 6.17507027 3.86989588 8 8 C8 9.98 8 11.96 8 14 C0.08 14 -7.84 14 -16 14 C-14.937638 6.56346602 -14.71863669 5.83372539 -10 1 C-6.80401935 -0.59799033 -3.47677244 -0.36773555 0 0 Z " fill="#F4F4F4" transform="translate(518,499)"/>
<path d="M0 0 C3.46679688 0.04882812 3.46679688 0.04882812 6.93359375 0.09765625 C6.93359375 3.72765625 6.93359375 7.35765625 6.93359375 11.09765625 C3.63359375 11.09765625 0.33359375 11.09765625 -3.06640625 11.09765625 C-3.1640625 3.3828125 -3.1640625 3.3828125 -3.06640625 1.09765625 C-2.06640625 0.09765625 -2.06640625 0.09765625 0 0 Z " fill="#020202" transform="translate(447.06640625,467.90234375)"/>
<path d="M0 0 C0.99 0.33 1.98 0.66 3 1 C3 2.98 3 4.96 3 7 C-4.92 7 -12.84 7 -21 7 C-20.67 5.68 -20.34 4.36 -20 3 C-19.67 3.66 -19.34 4.32 -19 5 C-12.4 5 -5.8 5 1 5 C0.67 3.35 0.34 1.7 0 0 Z " fill="#FAFAFA" transform="translate(523,506)"/>
<path d="M0 0 C0.99 0.33 1.98 0.66 3 1 C3 6.61 3 12.22 3 18 C2.67 18 2.34 18 2 18 C1.67 14.7 1.34 11.4 1 8 C0.67 8 0.34 8 0 8 C0 5.36 0 2.72 0 0 Z " fill="#EEEEEE" transform="translate(558,511)"/>
</svg>
