<svg xmlns="http://www.w3.org/2000/svg" style="display: none;">
  <defs>
    <!-- Search Icon -->
    <symbol id="search" viewBox="0 0 24 24" fill="none" stroke="currentColor" stroke-width="2" stroke-linecap="round" stroke-linejoin="round">
      <circle cx="11" cy="11" r="8"/>
      <path d="21 21l-4.35-4.35"/>
    </symbol>

    <!-- Circle Plus Icon -->
    <symbol id="circle-plus" viewBox="0 0 24 24" fill="none" stroke="currentColor" stroke-width="2" stroke-linecap="round" stroke-linejoin="round">
      <circle cx="12" cy="12" r="10"/>
      <path d="M8 12h8"/>
      <path d="M12 8v8"/>
    </symbol>

    <!-- Settings Icon -->
    <symbol id="settings" viewBox="0 0 24 24" fill="none" stroke="currentColor" stroke-width="2" stroke-linecap="round" stroke-linejoin="round">
      <path d="M12.22 2h-.44a2 2 0 0 0-2 2v.18a2 2 0 0 1-1 1.73l-.43.25a2 2 0 0 1-2 0l-.15-.08a2 2 0 0 0-2.73.73l-.22.38a2 2 0 0 0 .73 2.73l.15.1a2 2 0 0 1 1 1.72v.51a2 2 0 0 1-1 1.74l-.15.09a2 2 0 0 0-.73 2.73l.22.38a2 2 0 0 0 2.73.73l.15-.08a2 2 0 0 1 2 0l.43.25a2 2 0 0 1 1 1.73V20a2 2 0 0 0 2 2h.44a2 2 0 0 0 2-2v-.18a2 2 0 0 1 1-1.73l.43-.25a2 2 0 0 1 2 0l.15.08a2 2 0 0 0 2.73-.73l.22-.39a2 2 0 0 0-.73-2.73l-.15-.08a2 2 0 0 1-1-1.74v-.5a2 2 0 0 1 1-1.74l.15-.09a2 2 0 0 0 .73-2.73l-.22-.38a2 2 0 0 0-2.73-.73l-.15.08a2 2 0 0 1-2 0l-.43-.25a2 2 0 0 1-1-1.73V4a2 2 0 0 0-2-2z"/>
      <circle cx="12" cy="12" r="3"/>
    </symbol>

    <!-- Table Icon -->
    <symbol id="table" viewBox="0 0 24 24" fill="none" stroke="currentColor" stroke-width="2" stroke-linecap="round" stroke-linejoin="round">
      <path d="M9 3H5a2 2 0 0 0-2 2v4m6-6h10a2 2 0 0 1 2 2v4M9 3v18m0 0h10a2 2 0 0 0 2-2V9M9 21H5a2 2 0 0 1-2-2V9m0 0h18"/>
    </symbol>

    <!-- File Import Icon -->
    <symbol id="file-import" viewBox="0 0 24 24" fill="none" stroke="currentColor" stroke-width="2" stroke-linecap="round" stroke-linejoin="round">
      <path d="M14 2H6a2 2 0 0 0-2 2v16a2 2 0 0 0 2 2h12a2 2 0 0 0 2-2V8z"/>
      <polyline points="14,2 14,8 20,8"/>
      <line x1="12" y1="18" x2="12" y2="12"/>
      <polyline points="9,15 12,12 15,15"/>
    </symbol>

    <!-- File Export Icon -->
    <symbol id="file-export" viewBox="0 0 24 24" fill="none" stroke="currentColor" stroke-width="2" stroke-linecap="round" stroke-linejoin="round">
      <path d="M14 2H6a2 2 0 0 0-2 2v16a2 2 0 0 0 2 2h12a2 2 0 0 0 2-2V8z"/>
      <polyline points="14,2 14,8 20,8"/>
      <line x1="12" y1="12" x2="12" y2="18"/>
      <polyline points="9,15 12,18 15,15"/>
    </symbol>

    <!-- Alert Triangle Icon -->
    <symbol id="alert-triangle" viewBox="0 0 24 24" fill="none" stroke="currentColor" stroke-width="2" stroke-linecap="round" stroke-linejoin="round">
      <path d="m21.73 18-8-14a2 2 0 0 0-3.48 0l-8 14A2 2 0 0 0 4 21h16a2 2 0 0 0 1.73-3Z"/>
      <path d="M12 9v4"/>
      <path d="m12 17 .01 0"/>
    </symbol>

    <!-- Backspace Icon -->
    <symbol id="backspace" viewBox="0 0 24 24" fill="none" stroke="currentColor" stroke-width="2" stroke-linecap="round" stroke-linejoin="round">
      <path d="M21 4H8l-7 8 7 8h13a2 2 0 0 0 2-2V6a2 2 0 0 0-2-2z"/>
      <line x1="18" y1="9" x2="12" y2="15"/>
      <line x1="12" y1="9" x2="18" y2="15"/>
    </symbol>

    <!-- Circle Icon -->
    <symbol id="circle" viewBox="0 0 24 24" fill="none" stroke="currentColor" stroke-width="2" stroke-linecap="round" stroke-linejoin="round">
      <circle cx="12" cy="12" r="10"/>
    </symbol>

    <!-- Cloud Upload Icon -->
    <symbol id="cloud-upload" viewBox="0 0 24 24" fill="none" stroke="currentColor" stroke-width="2" stroke-linecap="round" stroke-linejoin="round">
      <path d="M4 14.899A7 7 0 1 1 15.71 8h1.79a4.5 4.5 0 0 1 2.5 8.242"/>
      <path d="m12 12-3 3h6l-3-3Z"/>
      <path d="m12 12 3 3"/>
      <path d="m12 12-3 3"/>
      <path d="m12 21 0-9"/>
    </symbol>

    <!-- Edit Icon -->
    <symbol id="edit" viewBox="0 0 24 24" fill="none" stroke="currentColor" stroke-width="2" stroke-linecap="round" stroke-linejoin="round">
      <path d="M11 4H4a2 2 0 0 0-2 2v14a2 2 0 0 0 2 2h14a2 2 0 0 0 2-2v-7"/>
      <path d="M18.5 2.5a2.121 2.121 0 0 1 3 3L12 15l-4 1 1-4 9.5-9.5z"/>
    </symbol>

    <!-- Eraser Icon -->
    <symbol id="eraser" viewBox="0 0 24 24" fill="none" stroke="currentColor" stroke-width="2" stroke-linecap="round" stroke-linejoin="round">
      <path d="m7 21-4.3-4.3c-1-1-1-2.5 0-3.4l9.6-9.6c1-1 2.5-1 3.4 0l5.6 5.6c1 1 1 2.5 0 3.4L13 21"/>
      <path d="M22 21H7"/>
      <path d="m5 11 9 9"/>
    </symbol>

    <!-- Help Icon -->
    <symbol id="help" viewBox="0 0 24 24" fill="none" stroke="currentColor" stroke-width="2" stroke-linecap="round" stroke-linejoin="round">
      <circle cx="12" cy="12" r="10"/>
      <path d="M9.09 9a3 3 0 0 1 5.83 1c0 2-3 3-3 3"/>
      <path d="m12 17 .01 0"/>
    </symbol>

    <!-- Printer Icon -->
    <symbol id="printer" viewBox="0 0 24 24" fill="none" stroke="currentColor" stroke-width="2" stroke-linecap="round" stroke-linejoin="round">
      <polyline points="6,9 6,2 18,2 18,9"/>
      <path d="M6 18H4a2 2 0 0 1-2-2v-5a2 2 0 0 1 2-2h16a2 2 0 0 1 2 2v5a2 2 0 0 1-2 2h-2"/>
      <rect x="6" y="14" width="12" height="8"/>
    </symbol>

    <!-- Tags Icon -->
    <symbol id="tags" viewBox="0 0 24 24" fill="none" stroke="currentColor" stroke-width="2" stroke-linecap="round" stroke-linejoin="round">
      <path d="M9 5H2v7l6.29 6.29c.94.94 2.48.94 3.42 0l3.58-3.58c.94-.94.94-2.48 0-3.42L9 5Z"/>
      <path d="M6 9.01V9"/>
      <path d="m15 5 6.3 6.3a2.4 2.4 0 0 1 0 3.4L17 19"/>
    </symbol>

    <!-- Toggle Left Icon -->
    <symbol id="toggle-left" viewBox="0 0 24 24" fill="none" stroke="currentColor" stroke-width="2" stroke-linecap="round" stroke-linejoin="round">
      <rect x="1" y="5" width="22" height="14" rx="7" ry="7"/>
      <circle cx="8" cy="12" r="3"/>
    </symbol>

    <!-- Accessible/Universal Access Icon -->
    <symbol id="accessible" viewBox="0 0 24 24" fill="none" stroke="currentColor" stroke-width="2" stroke-linecap="round" stroke-linejoin="round">
      <circle cx="12" cy="12" r="10"/>
      <circle cx="12" cy="6" r="2"/>
      <path d="M12 8v8"/>
      <path d="M8 12h8"/>
      <path d="M8 16l4-4 4 4"/>
    </symbol>

    <!-- Dashboard/Grid Icon -->
    <symbol id="dashboard" viewBox="0 0 24 24" fill="none" stroke="currentColor" stroke-width="2" stroke-linecap="round" stroke-linejoin="round">
      <rect x="3" y="3" width="7" height="7"/>
      <rect x="14" y="3" width="7" height="7"/>
      <rect x="14" y="14" width="7" height="7"/>
      <rect x="3" y="14" width="7" height="7"/>
    </symbol>

    <!-- Filter Icon -->
    <symbol id="filter" viewBox="0 0 24 24" fill="none" stroke="currentColor" stroke-width="2" stroke-linecap="round" stroke-linejoin="round">
      <polygon points="22,3 2,3 10,12.46 10,19 14,21 14,12.46 22,3"/>
    </symbol>

    <!-- Download Icon -->
    <symbol id="download" viewBox="0 0 24 24" fill="none" stroke="currentColor" stroke-width="2" stroke-linecap="round" stroke-linejoin="round">
      <path d="M21 15v4a2 2 0 0 1-2 2H5a2 2 0 0 1-2-2v-4"/>
      <polyline points="7,10 12,15 17,10"/>
      <line x1="12" y1="15" x2="12" y2="3"/>
    </symbol>

    <!-- Upload Icon -->
    <symbol id="upload" viewBox="0 0 24 24" fill="none" stroke="currentColor" stroke-width="2" stroke-linecap="round" stroke-linejoin="round">
      <path d="M21 15v4a2 2 0 0 1-2 2H5a2 2 0 0 1-2-2v-4"/>
      <polyline points="17,8 12,3 7,8"/>
      <line x1="12" y1="3" x2="12" y2="15"/>
    </symbol>

    <!-- Copy/Duplicate Icon -->
    <symbol id="copy" viewBox="0 0 24 24" fill="none" stroke="currentColor" stroke-width="2" stroke-linecap="round" stroke-linejoin="round">
      <rect x="9" y="9" width="13" height="13" rx="2" ry="2"/>
      <path d="M5 15H4a2 2 0 0 1-2-2V4a2 2 0 0 1 2-2h9a2 2 0 0 1 2 2v1"/>
    </symbol>

    <!-- Trash/Delete Icon -->
    <symbol id="trash" viewBox="0 0 24 24" fill="none" stroke="currentColor" stroke-width="2" stroke-linecap="round" stroke-linejoin="round">
      <polyline points="3,6 5,6 21,6"/>
      <path d="M19 6v14a2 2 0 0 1-2 2H7a2 2 0 0 1-2-2V6m3 0V4a2 2 0 0 1 2-2h4a2 2 0 0 1 2 2v2"/>
      <line x1="10" y1="11" x2="10" y2="17"/>
      <line x1="14" y1="11" x2="14" y2="17"/>
    </symbol>

    <!-- Priority/Flag Icon -->
    <symbol id="flag" viewBox="0 0 24 24" fill="none" stroke="currentColor" stroke-width="2" stroke-linecap="round" stroke-linejoin="round">
      <path d="M4 15s1-1 4-1 5 2 8 2 4-1 4-1V3s-1 1-4 1-5-2-8-2-4 1-4 1z"/>
      <line x1="4" y1="22" x2="4" y2="15"/>
    </symbol>

    <!-- Check Circle Icon -->
    <symbol id="check-circle" viewBox="0 0 24 24" fill="none" stroke="currentColor" stroke-width="2" stroke-linecap="round" stroke-linejoin="round">
      <path d="M22 11.08V12a10 10 0 1 1-5.93-9.14"/>
      <polyline points="22,4 12,14.01 9,11.01"/>
    </symbol>

    <!-- X Circle Icon -->
    <symbol id="x-circle" viewBox="0 0 24 24" fill="none" stroke="currentColor" stroke-width="2" stroke-linecap="round" stroke-linejoin="round">
      <circle cx="12" cy="12" r="10"/>
      <line x1="15" y1="9" x2="9" y2="15"/>
      <line x1="9" y1="9" x2="15" y2="15"/>
    </symbol>

    <!-- Clock Icon -->
    <symbol id="clock" viewBox="0 0 24 24" fill="none" stroke="currentColor" stroke-width="2" stroke-linecap="round" stroke-linejoin="round">
      <circle cx="12" cy="12" r="10"/>
      <polyline points="12,6 12,12 16,14"/>
    </symbol>

    <!-- Eye Icon -->
    <symbol id="eye" viewBox="0 0 24 24" fill="none" stroke="currentColor" stroke-width="2" stroke-linecap="round" stroke-linejoin="round">
      <path d="M1 12s4-8 11-8 11 8 11 8-4 8-11 8-11-8-11-8z"/>
      <circle cx="12" cy="12" r="3"/>
    </symbol>

    <!-- Link Icon -->
    <symbol id="link" viewBox="0 0 24 24" fill="none" stroke="currentColor" stroke-width="2" stroke-linecap="round" stroke-linejoin="round">
      <path d="M10 13a5 5 0 0 0 7.54.54l3-3a5 5 0 0 0-7.07-7.07l-1.72 1.71"/>
      <path d="M14 11a5 5 0 0 0-7.54-.54l-3 3a5 5 0 0 0 7.07 7.07l1.71-1.71"/>
    </symbol>
  </defs>
</svg>
